<svg width="26" height="21" viewBox="0 0 26 21" fill="none" xmlns="http://www.w3.org/2000/svg">
<path fill-rule="evenodd" clip-rule="evenodd" d="M20.0737 12.3994C20.7527 12.3994 21.4164 12.6007 21.981 12.9779C22.5456 13.3552 22.9856 13.8913 23.2454 14.5186C23.5053 15.146 23.5732 15.8362 23.4408 16.5022C23.3083 17.1681 22.9813 17.7798 22.5012 18.26C22.0211 18.7401 21.4094 19.0671 20.7434 19.1995C20.0775 19.332 19.3872 19.264 18.7599 19.0042C18.1326 18.7443 17.5964 18.3043 17.2192 17.7397C16.842 17.1752 16.6406 16.5114 16.6406 15.8324C16.6429 14.9226 17.0053 14.0507 17.6486 13.4074C18.292 12.7641 19.1639 12.4016 20.0737 12.3994ZM20.0737 10.9653C19.1111 10.9653 18.1701 11.2508 17.3697 11.7856C16.5693 12.3204 15.9455 13.0805 15.5771 13.9699C15.2087 14.8592 15.1123 15.8378 15.3001 16.7819C15.4879 17.7261 15.9515 18.5933 16.6321 19.274C17.3128 19.9546 18.18 20.4182 19.1242 20.606C20.0683 20.7938 21.0469 20.6974 21.9362 20.329C22.8256 19.9606 23.5857 19.3368 24.1205 18.5364C24.6553 17.736 24.9408 16.795 24.9408 15.8324C24.9385 14.5423 24.425 13.3056 23.5127 12.3934C22.6005 11.4811 21.3638 10.9676 20.0737 10.9653Z" fill="white"/>
<path fill-rule="evenodd" clip-rule="evenodd" d="M25.2448 9.94423V5.64214C25.2448 4.311 24.716 3.03437 23.7747 2.09311C22.8335 1.15184 21.5568 0.623047 20.2257 0.623047H5.88541C4.55427 0.623047 3.27764 1.15184 2.33638 2.09311C1.39511 3.03437 0.866318 4.311 0.866318 5.64214V14.2463C0.866318 15.5775 1.39511 16.8541 2.33638 17.7953C3.27764 18.7366 4.55427 19.2654 5.88541 19.2654H13.0556C13.2457 19.2654 13.4281 19.1899 13.5626 19.0554C13.697 18.9209 13.7726 18.7386 13.7726 18.5484C13.7726 18.3582 13.697 18.1759 13.5626 18.0414C13.4281 17.9069 13.2457 17.8314 13.0556 17.8314H5.88541C4.9346 17.8314 4.02272 17.4537 3.35039 16.7813C2.67806 16.109 2.30035 15.1971 2.30035 14.2463V5.64214C2.30035 4.69132 2.67806 3.77945 3.35039 3.10712C4.02272 2.43479 4.9346 2.05707 5.88541 2.05707H20.2257C21.1765 2.05707 22.0884 2.43479 22.7607 3.10712C23.433 3.77945 23.8108 4.69132 23.8108 5.64214V9.94423C23.8108 10.1344 23.8863 10.3168 24.0208 10.4512C24.1552 10.5857 24.3376 10.6612 24.5278 10.6612C24.7179 10.6612 24.9003 10.5857 25.0348 10.4512C25.1692 10.3168 25.2448 10.1344 25.2448 9.94423Z" fill="white"/>
<path fill-rule="evenodd" clip-rule="evenodd" d="M4.13016 6.28297L12.7343 10.5851C12.8339 10.6348 12.9436 10.6607 13.0548 10.6607C13.1661 10.6607 13.2758 10.6348 13.3753 10.5851L21.9795 6.28297C22.0667 6.2427 22.1449 6.18534 22.2095 6.11427C22.274 6.04321 22.3237 5.95989 22.3555 5.86928C22.3872 5.77866 22.4005 5.68259 22.3944 5.58675C22.3883 5.49092 22.3631 5.39728 22.3201 5.31139C22.2772 5.22551 22.2174 5.14912 22.1444 5.08677C22.0714 5.02441 21.9866 4.97737 21.895 4.94841C21.8035 4.91946 21.707 4.90919 21.6114 4.91821C21.5158 4.92724 21.423 4.95538 21.3385 5.00095L13.0556 9.14242L4.77261 5.00095C4.68809 4.95538 4.59528 4.92724 4.49968 4.91821C4.40408 4.90919 4.30764 4.91946 4.21608 4.94841C4.12453 4.97737 4.03972 5.02441 3.9667 5.08677C3.89367 5.14912 3.83391 5.22551 3.79097 5.31139C3.74802 5.39728 3.72277 5.49092 3.7167 5.58675C3.71064 5.68259 3.72388 5.77866 3.75565 5.86928C3.78742 5.95989 3.83707 6.04321 3.90165 6.11427C3.96623 6.18534 4.04443 6.2427 4.1316 6.28297H4.13016Z" fill="white"/>
<path fill-rule="evenodd" clip-rule="evenodd" d="M19.3567 15.1151H18.2955C18.1053 15.1151 17.923 15.1907 17.7885 15.3251C17.654 15.4596 17.5785 15.642 17.5785 15.8321C17.5785 16.0223 17.654 16.2047 17.7885 16.3391C17.923 16.4736 18.1053 16.5491 18.2955 16.5491H19.3567V17.6103C19.3567 17.8005 19.4322 17.9829 19.5667 18.1173C19.7011 18.2518 19.8835 18.3273 20.0737 18.3273C20.2638 18.3273 20.4462 18.2518 20.5807 18.1173C20.7152 17.9829 20.7907 17.8005 20.7907 17.6103V16.5491H21.8519C22.042 16.5491 22.2244 16.4736 22.3589 16.3391C22.4934 16.2047 22.5689 16.0223 22.5689 15.8321C22.5689 15.642 22.4934 15.4596 22.3589 15.3251C22.2244 15.1907 22.042 15.1151 21.8519 15.1151H20.7907V14.0539C20.7907 13.8638 20.7152 13.6814 20.5807 13.5469C20.4462 13.4125 20.2638 13.3369 20.0737 13.3369C19.8835 13.3369 19.7011 13.4125 19.5667 13.5469C19.4322 13.6814 19.3567 13.8638 19.3567 14.0539V15.1151Z" fill="white"/>
</svg>
