<svg width="139" height="76" viewBox="0 0 139 76" fill="none" xmlns="http://www.w3.org/2000/svg">
<g clip-path="url(#clip0_126_7)">
<path fill-rule="evenodd" clip-rule="evenodd" d="M98.4559 51.6284H92.1683C92.1683 51.6477 92.1683 51.6477 92.1683 51.6669C92.0916 52.1286 91.8999 52.571 91.6315 53.0134C91.3248 53.4943 91.0756 54.0137 90.788 54.5907C90.6539 54.86 90.5005 55.1678 90.3471 55.4756C90.3471 55.4756 90.3471 55.4756 90.3471 55.4563V55.4371V55.4179C90.3471 55.4371 90.328 55.4563 90.328 55.4563L90.3088 55.4948C90.2321 55.264 90.1554 55.0524 90.0788 54.8408C89.9254 54.3984 89.772 54.0137 89.7337 53.6097C89.6954 53.2827 89.4845 52.8595 89.1778 52.5133C88.7752 52.1478 88.2576 51.8977 87.8934 51.9555C87.2416 52.0709 86.9349 52.8595 87.0308 53.8021C87.1841 55.3986 87.28 57.0144 87.3567 58.6302C87.3758 58.9188 87.28 59.3035 87.0883 59.5151C86.4748 60.2075 85.8422 60.8808 85.1521 61.6117C84.8838 61.9003 84.5962 62.1888 84.3087 62.4966C84.3087 62.2465 84.2895 62.0349 84.2703 61.8041V61.7272C84.117 61.304 83.9636 60.9 84.3087 60.4191C84.347 60.0152 84.1745 59.4766 83.9061 59.0342C83.7719 58.8226 83.6186 58.6495 83.4652 58.534C83.3885 58.4763 83.2927 58.4186 83.216 58.3994C82.5834 58.1686 81.9316 58.6495 81.7016 59.5728C81.4715 60.5345 81.2415 61.4963 81.0306 62.4773C80.9731 62.7851 80.9156 63.0737 80.8773 63.3814C80.8198 63.7277 80.7431 64.0354 80.6281 64.324C80.4555 64.9972 80.0913 65.4589 79.4395 65.8051C79.4204 65.8243 79.4012 65.8243 79.382 65.8436C79.3629 65.8436 79.3629 65.8628 79.3437 65.8628C79.2287 65.9205 79.1137 65.9975 78.9986 66.0552C78.5386 66.3052 78.0785 66.613 77.5992 66.9015C77.3309 67.0747 77.0433 67.2478 76.7558 67.4401C76.7558 67.4401 76.7558 67.4401 76.7558 67.4209V67.4017C76.7174 67.3824 76.6791 67.3632 76.6408 67.344C76.6024 67.3247 76.5641 67.3055 76.5066 67.2863C76.5832 67.0939 76.6408 66.9208 76.7174 66.7284L76.7558 66.6322C76.7366 66.2668 76.7749 65.9205 77.1583 65.6128C77.1775 65.5743 77.1775 65.5358 77.1967 65.5166C77.4459 64.9587 77.1775 63.8238 76.7558 63.3429C76.219 62.939 75.5289 63.0544 75.0688 63.8046C74.3404 64.978 73.6694 66.1898 73.0752 67.4209C72.9218 67.7287 72.7685 67.998 72.5768 68.2288C72.2701 68.7482 71.8291 69.0175 71.3307 69.1906C71.1582 69.2675 70.9857 69.3252 70.794 69.3637C70.4106 69.4791 70.0272 69.5945 69.6438 69.7099C69.2029 69.8446 68.7812 69.9792 68.3402 70.1139C68.2636 70.1331 68.1869 70.1331 68.0144 70.1331C67.9185 70.1331 67.7843 70.1331 67.5926 70.1331C67.6501 70.0562 67.7076 69.9792 67.7652 69.9023C67.7843 69.8638 67.8035 69.8446 67.8418 69.8061C67.9185 69.6907 67.9952 69.5945 68.0719 69.4791C68.3786 69.0559 68.647 68.6905 68.9537 68.3442L68.9728 68.325C68.9728 68.325 68.9728 68.3057 68.992 68.3057C69.2796 67.8633 69.3562 67.017 69.2029 66.4399C69.1454 66.286 69.0687 66.1321 68.9537 66.0167C68.8387 65.8821 68.7045 65.8051 68.5511 65.7474C68.1677 65.6512 67.6885 65.7859 67.2476 66.1129C67.2092 66.1514 67.1709 66.1898 67.1326 66.2091C65.9824 67.3247 64.8705 68.4789 63.7395 69.6138C63.3369 70.0369 62.9152 70.2293 62.3209 70.2101C62.1868 70.2293 62.0526 70.2293 61.9184 70.2293C61.4391 70.2293 60.9407 70.2293 60.4615 70.2485C60.0014 70.2485 59.5605 70.2678 59.1004 70.2678C59.0237 70.2678 58.9471 70.2485 58.7937 70.1908C58.6979 70.1524 58.5637 70.1139 58.3911 70.0562C58.6212 69.8831 58.832 69.7292 59.0237 69.5753C59.4455 69.2483 59.7905 68.979 60.1931 68.7482C60.2506 68.7097 60.3081 68.6712 60.3465 68.6328C60.6532 68.248 60.9407 67.5748 60.9791 67.0747C60.9791 66.8823 60.9407 66.6899 60.864 66.5361C60.864 66.5361 60.864 66.5168 60.8449 66.5168V66.4976C60.4998 65.9398 59.8097 65.8243 59.0237 66.2475C58.5253 66.5168 58.0269 66.7861 57.5285 67.0554C56.9917 67.344 56.455 67.6517 55.8991 67.9403C55.554 68.1326 55.209 68.325 54.8447 68.5173C54.3463 68.8059 53.8862 68.8636 53.3303 68.6905C53.2728 68.6712 53.2153 68.6712 53.1578 68.652C52.4102 68.4596 51.6625 68.2096 50.8766 67.9403C50.8382 67.921 50.7807 67.9018 50.7232 67.8826C50.6465 67.8633 50.5507 67.8249 50.474 67.8056C50.3015 67.7671 50.1481 67.7094 49.9756 67.6517C49.9756 67.6517 49.9756 67.6517 49.9756 67.6325C49.9564 67.6325 49.9373 67.6133 49.9181 67.6133C49.8989 67.6133 49.8606 67.594 49.8414 67.594C49.8798 67.5748 49.9181 67.5363 49.9564 67.5171C49.9564 67.4978 49.9373 67.4594 49.9373 67.4401C49.9373 67.4209 49.9181 67.3824 49.9181 67.3632C50.0906 67.3055 50.244 67.2286 50.4165 67.1516C50.7041 66.9208 50.9533 66.7284 51.2216 66.7477C51.375 66.7477 51.5284 66.7477 51.6625 66.7092C51.9693 66.5938 52.3527 66.2283 52.6402 65.8243C52.6594 65.8051 52.6785 65.7666 52.6977 65.7474C52.7169 65.7089 52.7552 65.6705 52.7744 65.632C52.9661 65.3242 52.9469 64.5163 52.7361 64.4009C52.276 64.1124 51.6242 63.9585 51.0875 64.0354C50.0715 64.1893 49.0746 64.4202 48.0778 64.6702C47.7136 64.7664 47.3302 64.8433 46.966 64.9395C46.065 65.1511 45.2982 64.9972 44.5697 64.3817C44.0713 63.9585 43.5154 63.6122 42.9403 63.2468C42.6911 63.0929 42.4227 62.9198 42.1543 62.7466C42.1927 62.7274 42.231 62.7082 42.2694 62.7082C42.2502 62.6889 42.231 62.6889 42.231 62.6697C42.1927 62.6505 42.1735 62.6312 42.1352 62.612C42.3077 62.5543 42.4994 62.4773 42.6719 62.4004C43.0553 62.2465 43.4195 62.0926 43.7071 62.1888C44.4931 62.4581 44.9723 62.0349 45.394 61.6502C45.4324 61.6117 45.4707 61.5733 45.509 61.554C45.7391 61.3424 45.9308 60.7077 45.8733 60.4384C45.8733 60.4191 45.8541 60.3999 45.8541 60.3807C45.8541 60.3807 45.8541 60.3614 45.8349 60.3614C45.5091 60.0152 45.0298 59.6882 44.5506 59.5728C44.4931 59.5728 44.4355 59.5535 44.378 59.5535C43.8988 59.5343 43.4195 59.4958 42.9595 59.4574C42.116 59.3996 41.2725 59.3419 40.4291 59.3227C39.183 59.3035 38.3587 58.7264 37.707 57.7069C37.4194 57.2453 37.036 56.8413 36.6526 56.4374C36.4801 56.2642 36.3076 56.0719 36.1542 55.8795C36.1542 55.8603 36.1734 55.8411 36.1734 55.8218C36.1734 55.8026 36.1925 55.7833 36.1925 55.7641L36.1734 55.7449C36.1734 55.7449 36.1734 55.7256 36.1542 55.7256H36.1734H36.1925C36.1925 55.7064 36.2117 55.7064 36.2117 55.6872C36.2117 55.6679 36.2309 55.6679 36.2309 55.6487C36.3267 55.6679 36.4034 55.6679 36.4993 55.6872C36.5568 55.6679 36.6143 55.6679 36.691 55.6487C37.1894 55.5525 37.6686 55.4563 38.1862 55.8988C38.2437 55.9372 38.3012 55.9757 38.3779 55.9949C38.5696 55.9949 38.7805 55.9757 38.9913 55.918C39.4706 55.7641 40.0073 55.4179 40.2182 55.0909C40.5632 54.4368 39.9498 53.5905 38.9913 53.3019C37.9753 52.9942 36.9785 52.6479 35.9817 52.2632C35.905 52.2248 35.8091 52.1478 35.7516 52.0324C35.7325 52.0324 35.6941 52.0132 35.675 52.0132C35.5983 51.9939 35.5024 51.9555 35.4258 51.9362C35.2341 51.8785 35.0615 51.8016 34.9082 51.7246H27.7962C33.2596 65.9782 47.0235 76.1154 63.1644 76.1154C79.2287 76 93.0117 65.882 98.4559 51.6284ZM98.7818 25.2564H92.6859C92.3983 24.7947 91.9957 24.487 91.4973 24.2946C91.229 24.1407 90.9222 24.0253 90.5964 23.9099C89.3695 23.5059 88.1618 23.0828 86.9541 22.6019C86.8582 22.5634 86.7624 22.5249 86.6857 22.4672C86.3407 22.2172 86.0915 21.8709 86.1106 21.4093C86.1298 20.6975 86.7432 20.3898 87.4142 20.2551H87.4525C87.9126 20.1589 88.2768 20.082 88.7561 20.3898C89.0053 20.5437 89.3695 20.5244 89.7912 20.486C89.8871 20.486 89.9637 20.4667 90.0596 20.4667H90.0979C90.1938 20.4667 90.2896 20.4475 90.4047 20.4667C90.1554 20.1589 89.9254 19.8896 89.7145 19.6203C89.2353 19.0433 88.8136 18.5239 88.4302 17.9853C88.0851 17.466 87.625 17.1582 87.1266 16.9851C86.8391 16.8697 86.5324 16.8119 86.2065 16.7927C85.8231 16.7735 85.4397 16.7542 85.0563 16.735L84.8262 16.7158C84.4812 16.6965 84.1553 16.6773 83.8103 16.6581C83.6761 16.6581 83.5419 16.6388 83.3885 16.6388C83.101 16.6196 82.8326 16.6004 82.545 16.5811C82.5067 16.5811 82.4875 16.5811 82.4492 16.5811C81.9891 16.5426 81.4907 16.5042 81.1456 16.2541C80.8389 16.0233 80.5514 15.4462 80.6089 15.0615C80.7047 14.3305 81.8549 13.7535 82.6026 13.9266C82.9284 14.0035 83.1393 13.9843 83.1968 13.792C83.331 13.7535 83.4844 13.6958 83.6377 13.6381C83.8294 13.5611 84.0019 13.4842 84.2128 13.4265C83.9061 13.2149 83.5994 13.0033 83.3118 12.8109C83.0243 12.6186 82.7559 12.4455 82.5067 12.2531C82.0083 11.7145 81.3373 11.2528 80.7623 11.1182C80.2638 10.9643 79.7271 10.9835 79.1903 11.099C78.5769 11.2336 77.9826 11.3683 77.3692 11.5221C76.7749 11.676 76.1807 11.8107 75.5864 11.9453C75.5481 11.9453 75.5289 11.9646 75.4906 11.9646C75.0497 12.0607 74.5321 12.1762 74.1487 12.0223C73.957 11.9453 73.7461 11.7914 73.5736 11.5799C73.5161 11.4837 73.4586 11.3683 73.4394 11.2528C73.3244 10.695 73.9187 9.82941 74.5129 9.46393C74.6471 9.42546 74.7621 9.38699 74.8963 9.38699C75.203 9.36775 75.3947 9.31005 75.4331 9.13693C75.6439 9.05999 75.8548 8.96381 76.0657 8.86763C76.2382 8.79069 76.4107 8.71374 76.5832 8.6368C76.5641 8.57909 76.5641 8.54062 76.5449 8.48291C76.5257 8.42521 76.5257 8.38674 76.5066 8.32903C76.1999 8.23285 75.874 8.13667 75.5673 8.0405C74.973 7.86737 74.3979 7.67502 73.8036 7.52113C73.1135 7.2326 72.3659 7.09795 71.9058 7.30954C70.3722 8.0405 68.8962 8.84839 67.4201 9.67552C67.0367 9.88712 66.6533 9.9833 66.2891 9.96406C66.0015 9.90635 65.7523 9.73323 65.599 9.4447C65.2539 8.82916 65.6373 7.57884 66.2316 7.19413C66.615 6.94407 66.9984 6.65553 67.3626 6.367C67.5351 6.23235 67.6885 6.11693 67.861 6.00152C67.8227 5.92458 67.7843 5.84763 67.7268 5.77069C67.631 5.77069 67.5351 5.77069 67.4393 5.78993C67.0942 5.78993 66.7683 5.78993 66.4233 5.78993C66.1549 5.78993 65.9057 5.78993 65.6373 5.78993C65.0814 5.75146 64.5446 5.73222 64.027 5.80916C63.9887 5.80916 63.9695 5.80916 63.9312 5.80916C63.8929 5.80916 63.8545 5.80916 63.8162 5.80916C63.452 5.8284 63.011 5.96305 62.7427 6.19387C62.7043 6.23235 62.666 6.27082 62.6277 6.30929C62.5893 6.34776 62.5701 6.367 62.5318 6.40547C62.3209 6.55935 62.1292 6.75171 61.9375 6.9633C61.2091 7.67502 60.4998 8.38674 59.7905 9.09846C59.618 9.27158 59.4263 9.46393 59.2538 9.63705C58.9279 9.96406 58.602 10.1757 58.2761 10.2526C57.9694 10.2911 57.701 10.2141 57.4902 10.0025C56.9726 9.48317 57.0876 8.07897 57.586 7.54037C57.8736 7.2326 58.1036 6.84789 58.3528 6.48241C58.4486 6.30929 58.5637 6.1554 58.6595 6.00152C58.6212 6.00152 58.5828 6.02075 58.5445 6.02075C58.5253 6.02075 58.5062 6.02075 58.4678 6.03999L58.2953 5.86687C58.1228 5.92458 57.9502 5.98228 57.7777 6.03999C57.4135 6.17464 57.0301 6.30929 56.6467 6.38623C56.1291 6.48241 55.6115 6.61706 55.1323 6.79018C55.0364 6.82865 54.9406 6.86712 54.8447 6.90559C54.0588 7.25184 53.3878 7.80967 53.0044 8.82916C52.7361 9.54088 52.3718 10.1949 52.0076 10.8681C51.8351 11.1759 51.6625 11.5029 51.49 11.8107C51.2025 12.3685 50.8191 12.7532 50.4165 12.8879C50.1865 12.9263 49.9564 12.8879 49.7647 12.7532C49.228 12.407 48.8829 11.022 49.1513 10.4642C49.343 10.0602 49.4772 9.63705 49.6305 9.21387C49.6881 9.02151 49.7647 8.84839 49.8222 8.65604C49.7839 8.67527 49.7264 8.69451 49.6881 8.71374C49.6689 8.71374 49.6689 8.73298 49.6497 8.73298V8.71374C49.6497 8.69451 49.6497 8.69451 49.6689 8.67527C49.0171 8.96381 48.4612 9.29081 47.9053 9.59858C47.8094 9.65629 47.6944 9.714 47.5986 9.7717C47.4452 9.84865 47.2918 9.92559 47.1576 10.0218V10.0025C47.1001 10.041 47.0235 10.0795 46.966 10.0987C46.065 10.5604 45.6049 11.2336 45.4324 12.2146C45.2023 13.5227 44.9148 14.8307 44.6081 16.1387L44.5506 16.3695C44.4164 16.9274 44.148 17.3121 43.8221 17.5044C43.5921 17.5814 43.3429 17.5621 43.0937 17.466C42.5377 17.2351 41.7518 15.8886 42.0585 15.4655C42.4419 14.9461 42.2694 14.5229 42.116 14.119C42.0585 13.9843 42.001 13.8497 41.9818 13.715V13.6958V13.6765C41.9818 13.6381 41.9626 13.5996 41.9626 13.5611C41.7709 13.7727 41.5601 13.9843 41.3684 14.1959C41.2342 14.3305 41.1 14.4652 40.9658 14.6191C40.7741 14.8307 40.5824 15.023 40.3716 15.2154C39.183 16.2156 38.723 17.4083 38.953 18.9471C39.1447 20.1974 39.2214 21.4862 39.2789 22.7558C39.298 23.2559 39.1063 23.6406 38.8188 23.8714C38.6846 23.9484 38.5313 24.0061 38.3587 24.0253C37.7453 24.083 36.6334 23.0251 36.5759 22.3903C36.5759 22.3518 36.5568 22.3133 36.5568 22.2749C36.5568 22.2556 36.5568 22.2172 36.5376 22.1979C36.5759 21.9479 36.5184 21.7555 36.4226 21.5824C36.3842 21.4285 36.3651 21.2938 36.3267 21.14C36.2884 20.9476 36.25 20.7745 36.2117 20.5821C36.135 20.6014 36.0392 20.6206 35.9625 20.6398C35.9433 20.6783 35.9242 20.6975 35.905 20.736C35.8858 20.7553 35.8858 20.7745 35.8667 20.7937C35.8475 20.7553 35.8283 20.7168 35.8091 20.6783C35.6558 21.0053 35.5024 21.2938 35.3491 21.6016C34.9848 22.3133 34.6398 22.9866 34.3714 23.6791C34.1797 24.16 34.0647 24.7755 34.1605 25.2756H27.3936C32.627 10.5411 46.6401 0 63.0877 0C79.5546 0 93.5677 10.5411 98.7818 25.2564Z" fill="#001AFF"/>
<path d="M3.35471 44.1071H0V31.0269H10.1408V33.6621H3.35471V44.1071ZM23.7322 44.1071H20.3775V36.0858L15.9109 44.1071H12.3837V31.0269H15.7192V39.0481L20.1858 31.0269H23.713V44.1071H23.7322ZM28.7547 31.0461H38.5312V41.5103H39.9306V46.55H36.7676L36.5759 44.1263H29.3297L29.1381 46.55H25.975V41.5103H27.1827C27.547 41.1063 27.8153 40.6447 27.9879 40.1253C28.1796 39.6059 28.2754 39.1251 28.3137 38.7019L28.7547 31.0461ZM35.1765 41.491V33.6621H31.726L31.4384 38.3364C31.4001 39.0866 31.2084 39.856 30.8825 40.6254C30.7483 40.9524 30.595 41.241 30.4224 41.5103H35.1765V41.491ZM42.346 31.0461H50.1673C51.4708 31.0461 52.4102 31.3539 53.0044 31.9502C53.5987 32.5272 53.9054 33.489 53.9054 34.797V36.6629C53.9054 37.9709 53.5987 38.9135 53.0044 39.529C52.4293 40.1061 51.4708 40.4138 50.1673 40.4138H45.7007V44.1456H42.346V31.0461ZM50.5315 34.7778C50.5315 34.0276 50.1673 33.6621 49.4197 33.6621H45.7007V37.7786H49.4197C50.1673 37.7786 50.5315 37.4131 50.5315 36.6629V34.7778Z" fill="white"/>
<path d="M65.6948 35.0283C65.6948 34.2781 65.3306 33.9126 64.583 33.9126H61.4199C60.6723 33.9126 60.3081 34.2781 60.3081 35.0283V41.0106C60.3081 41.7608 60.6723 42.1262 61.4199 42.1262H64.583C65.3306 42.1262 65.6948 41.7608 65.6948 41.0106V35.0283ZM69.0303 41.0106C69.0303 42.3186 68.7236 43.2611 68.1294 43.8767C67.5543 44.4538 66.5958 44.7615 65.2922 44.7615H60.634C59.3304 44.7615 58.3911 44.473 57.7777 43.8767C57.2026 43.2804 56.8959 42.3186 56.8959 41.0106V35.0283C56.8959 33.7203 57.1834 32.7777 57.7777 32.1814C58.3719 31.5851 59.3304 31.2773 60.634 31.2773H65.2922C66.5958 31.2773 67.5351 31.5851 68.1294 32.1814C68.7236 32.7585 69.0303 33.7203 69.0303 35.0283V41.0106Z" fill="#001AFF"/>
<path d="M73.5161 31.4887H81.3373C82.6409 31.4887 83.5802 31.7965 84.1744 32.3928C84.7687 32.9699 85.0754 33.9317 85.0754 35.2397V37.1055C85.0754 38.4136 84.7687 39.3561 84.1744 39.9717C83.5994 40.5487 82.6409 40.8565 81.3373 40.8565H76.8708V44.5882H73.5161V31.4887ZM81.7015 35.2205C81.7015 34.4703 81.3373 34.1048 80.5897 34.1048H76.8708V38.2212H80.5897C81.3373 38.2212 81.7015 37.8557 81.7015 37.1055V35.2205ZM97.9767 44.5497H87.6442V31.4695H97.9767V34.0856H90.9989V36.6054H96.4814V39.2215H90.9989V41.9337H97.9767V44.5497ZM99.6636 41.8375C102.827 42.0299 105.069 42.1261 106.354 42.1261C106.641 42.1261 106.871 42.0491 107.025 41.876C107.197 41.7029 107.293 41.472 107.293 41.1835V40.4333C107.293 39.6831 106.929 39.3176 106.181 39.3176H101.715V36.7016H105.817C106.565 36.7016 106.929 36.3361 106.929 35.5859V35.2205C106.929 34.4703 106.565 34.1048 105.817 34.1048H99.8553V31.4887H106.737C107.945 31.4887 108.846 31.7773 109.421 32.3351C109.996 32.8737 110.284 33.7201 110.284 34.855C110.284 35.6052 110.111 36.2207 109.766 36.6824C109.44 37.144 108.98 37.471 108.424 37.6441C109.421 37.9134 110.111 38.5867 110.475 39.6639C110.59 40.0486 110.667 40.491 110.667 41.0104V41.2027C110.667 42.4146 110.38 43.3187 109.804 43.8957C109.229 44.4728 108.348 44.7613 107.121 44.7613C105.05 44.7613 102.558 44.6459 99.6828 44.3959V41.8375H99.6636ZM122.725 31.2964C123.032 31.2964 123.587 31.3541 124.393 31.4887V34.0086H123.645C123.453 34.0086 123.3 34.0663 123.147 34.201C122.993 34.3164 122.878 34.4318 122.821 34.5664L121.057 37.9327L124.68 44.569H121.153L118.277 39.2407H116.61V44.569H113.255V31.4887H116.61V36.6247H118.277L120.137 33.0853C120.405 32.5659 120.75 32.1428 121.134 31.8157C121.536 31.4695 122.073 31.2964 122.725 31.2964ZM129.051 44.5497H125.428L130.354 31.4695H134.073L139 44.5497H135.377L134.533 42.2222H129.875L129.051 44.5497ZM130.719 39.7985H133.69L132.195 35.4128L130.719 39.7985Z" fill="white"/>
</g>
<defs>
<clipPath id="clip0_126_7">
<rect width="139" height="76" fill="white"/>
</clipPath>
</defs>
</svg>
