<svg width="20" height="21" viewBox="0 0 20 21" fill="none" xmlns="http://www.w3.org/2000/svg">
<path d="M18.3952 13.4778C17.1707 13.4778 15.9684 13.2812 14.8291 12.8946C14.2708 12.6991 13.5845 12.8785 13.2438 13.2377L10.995 14.9806C8.38701 13.5514 6.78056 11.9026 5.40743 9.24519L7.05509 6.99657C7.48316 6.55767 7.6367 5.91654 7.45274 5.31498C7.07462 4.13912 6.88253 2.90536 6.88253 1.64769C6.88259 0.739147 6.16264 0 5.27775 0H1.60484C0.719946 0 0 0.739147 0 1.64764C0 12.0614 8.25196 20.5333 18.3952 20.5333C19.2801 20.5333 20 19.7942 20 18.8857V15.1254C19.9999 14.2169 19.28 13.4778 18.3952 13.4778Z" fill="#FFFBF9"/>
</svg>
