<svg width="23" height="19" viewBox="0 0 23 19" fill="none" xmlns="http://www.w3.org/2000/svg">
<path d="M1.83495 8.3949C7.81198 5.7914 11.7967 4.07484 13.789 3.24556C19.4842 0.877485 20.6661 0.466203 21.4381 0.45227C21.6078 0.449547 21.9858 0.491508 22.2325 0.690902C22.4375 0.859066 22.4951 1.08649 22.5239 1.24616C22.5496 1.40568 22.5848 1.76924 22.556 2.05303C22.2485 5.29459 20.9128 13.1608 20.2337 16.7916C19.9486 18.3278 19.3817 18.8429 18.8339 18.8931C17.6424 19.0027 16.7391 18.1065 15.586 17.3508C13.7826 16.1679 12.764 15.4318 11.0119 14.2778C8.98753 12.944 10.3008 12.2108 11.4539 11.0128C11.755 10.6992 17.0017 5.92817 17.101 5.49543C17.1139 5.4413 17.1267 5.2395 17.005 5.13316C16.8864 5.02649 16.7103 5.06301 16.5821 5.09184C16.3996 5.13284 13.52 7.03806 7.9337 10.8072C7.11691 11.369 6.37698 11.6429 5.71073 11.6285C4.98042 11.6128 3.57105 11.2146 2.52362 10.8744C1.24237 10.4571 0.220577 10.2364 0.310264 9.52752C0.355108 9.15852 0.864405 8.78088 1.83495 8.3949Z" fill="white"/>
</svg>
