<svg width="23" height="23" viewBox="0 0 23 23" fill="none" xmlns="http://www.w3.org/2000/svg">
<path fill-rule="evenodd" clip-rule="evenodd" d="M11.4316 20.8668C9.76198 20.8668 8.11877 20.4223 6.68137 19.5823C6.44995 19.447 6.17128 19.4109 5.91262 19.4814L2.78717 20.339L3.87624 17.9407C4.02438 17.6148 3.98594 17.2344 3.77694 16.9437C2.6118 15.3302 1.9968 13.4235 1.9968 11.432C1.9968 6.22928 6.22893 1.99715 11.4316 1.99715C16.6343 1.99715 20.8664 6.22928 20.8664 11.432C20.8664 16.6346 16.6343 20.8668 11.4316 20.8668ZM11.4316 0C5.12786 0 0.000455097 5.1282 0.000455097 11.432C0.000455097 13.6493 0.629069 15.7786 1.82624 17.6268L0.0893419 21.4521C-0.0708144 21.8053 -0.0123573 22.2185 0.238287 22.5132C0.431275 22.7382 0.710748 22.8639 0.998228 22.8639C1.64206 22.8639 5.15348 21.7604 6.04715 21.5146C7.69916 22.3987 9.55137 22.8639 11.4316 22.8639C17.7346 22.8639 22.8636 17.7349 22.8636 11.432C22.8636 5.1282 17.7346 0.000800781 11.4316 0Z" fill="white"/>
<path fill-rule="evenodd" clip-rule="evenodd" d="M14.3187 12.5532C13.8862 12.7302 13.61 13.4077 13.3297 13.7536C13.1855 13.9306 13.0142 13.9586 12.7932 13.8697C11.1692 13.2227 9.92397 12.1384 9.02789 10.6442C8.87574 10.4127 8.90297 10.2294 9.08635 10.014C9.35701 9.69524 9.69734 9.33329 9.77022 8.90327C9.93277 7.95354 8.69076 5.00587 7.04996 6.34157C2.32936 10.1885 14.9248 20.3913 17.1983 14.8731C17.8413 13.3084 15.0362 12.2593 14.3187 12.5532Z" fill="white"/>
</svg>
