<svg width="18" height="15" viewBox="0 0 18 15" fill="none" xmlns="http://www.w3.org/2000/svg">
<path fill-rule="evenodd" clip-rule="evenodd" d="M13.4073 8.22334C13.8811 8.22334 14.3442 8.36384 14.7382 8.62708C15.1322 8.89032 15.4392 9.26446 15.6205 9.70221C15.8019 10.14 15.8493 10.6216 15.7569 11.0863C15.6644 11.5511 15.4363 11.9779 15.1012 12.313C14.7662 12.648 14.3393 12.8762 13.8746 12.9686C13.4099 13.061 12.9282 13.0136 12.4905 12.8323C12.0527 12.6509 11.6786 12.3439 11.4154 11.9499C11.1521 11.556 11.0116 11.0928 11.0116 10.619C11.0132 9.98411 11.2661 9.37569 11.715 8.92676C12.164 8.47783 12.7724 8.22493 13.4073 8.22334ZM13.4073 7.22266C12.7355 7.22266 12.0789 7.42185 11.5204 7.79504C10.9618 8.16823 10.5265 8.69867 10.2695 9.31926C10.0124 9.93986 9.94514 10.6227 10.0762 11.2816C10.2072 11.9404 10.5307 12.5456 11.0057 13.0205C11.4807 13.4955 12.0858 13.819 12.7447 13.95C13.4035 14.0811 14.0864 14.0138 14.707 13.7568C15.3276 13.4997 15.858 13.0644 16.2312 12.5059C16.6044 11.9474 16.8036 11.2907 16.8036 10.619C16.802 9.71871 16.4437 8.85576 15.8071 8.21917C15.1705 7.58258 14.3075 7.22424 13.4073 7.22266Z" fill="white"/>
<path fill-rule="evenodd" clip-rule="evenodd" d="M17.0157 6.51031V3.50826C17.0157 2.57936 16.6467 1.68852 15.9899 1.03169C15.3331 0.374861 14.4422 0.00585938 13.5133 0.00585938H3.50649C2.57759 0.00585938 1.68675 0.374861 1.02992 1.03169C0.373091 1.68852 0.00408936 2.57936 0.00408936 3.50826V9.51237C0.00408936 10.4413 0.373091 11.3321 1.02992 11.9889C1.68675 12.6458 2.57759 13.0148 3.50649 13.0148H8.50991C8.64261 13.0148 8.76988 12.9621 8.86371 12.8682C8.95754 12.7744 9.01025 12.6471 9.01025 12.5144C9.01025 12.3817 8.95754 12.2545 8.86371 12.1606C8.76988 12.0668 8.64261 12.0141 8.50991 12.0141H3.50649C2.84299 12.0141 2.20667 11.7505 1.73751 11.2813C1.26835 10.8122 1.00477 10.1759 1.00477 9.51237V3.50826C1.00477 2.84476 1.26835 2.20844 1.73751 1.73928C2.20667 1.27012 2.84299 1.00654 3.50649 1.00654H13.5133C14.1768 1.00654 14.8132 1.27012 15.2823 1.73928C15.7515 2.20844 16.0151 2.84476 16.0151 3.50826V6.51031C16.0151 6.64301 16.0678 6.77028 16.1616 6.86411C16.2554 6.95794 16.3827 7.01065 16.5154 7.01065C16.6481 7.01065 16.7754 6.95794 16.8692 6.86411C16.963 6.77028 17.0157 6.64301 17.0157 6.51031Z" fill="white"/>
<path fill-rule="evenodd" clip-rule="evenodd" d="M2.28165 3.95652L8.28576 6.95857C8.3552 6.99328 8.43177 7.01134 8.50941 7.01134C8.58705 7.01134 8.66361 6.99328 8.73306 6.95857L14.7372 3.95652C14.798 3.92842 14.8526 3.88838 14.8976 3.83879C14.9427 3.7892 14.9773 3.73107 14.9995 3.66783C15.0217 3.6046 15.0309 3.53756 15.0267 3.47068C15.0225 3.40381 15.0048 3.33847 14.9749 3.27854C14.9449 3.2186 14.9032 3.1653 14.8522 3.12179C14.8013 3.07828 14.7421 3.04545 14.6782 3.02524C14.6143 3.00504 14.547 2.99787 14.4803 3.00417C14.4136 3.01047 14.3488 3.0301 14.2899 3.0619L8.50991 5.95188L2.72995 3.0619C2.67097 3.0301 2.60621 3.01047 2.5395 3.00417C2.47279 2.99787 2.40549 3.00504 2.3416 3.02524C2.27771 3.04545 2.21853 3.07828 2.16757 3.12179C2.11662 3.1653 2.07492 3.2186 2.04495 3.27854C2.01498 3.33847 1.99736 3.40381 1.99313 3.47068C1.98889 3.53756 1.99813 3.6046 2.0203 3.66783C2.04247 3.73107 2.07712 3.7892 2.12218 3.83879C2.16725 3.88838 2.22182 3.92842 2.28265 3.95652H2.28165Z" fill="white"/>
<path fill-rule="evenodd" clip-rule="evenodd" d="M12.9069 10.1198H12.1664C12.0337 10.1198 11.9065 10.1725 11.8126 10.2663C11.7188 10.3601 11.6661 10.4874 11.6661 10.6201C11.6661 10.7528 11.7188 10.8801 11.8126 10.9739C11.9065 11.0677 12.0337 11.1204 12.1664 11.1204H12.9069V11.8609C12.9069 11.9936 12.9596 12.1209 13.0535 12.2147C13.1473 12.3086 13.2746 12.3613 13.4073 12.3613C13.54 12.3613 13.6672 12.3086 13.7611 12.2147C13.8549 12.1209 13.9076 11.9936 13.9076 11.8609V11.1204H14.6481C14.7808 11.1204 14.9081 11.0677 15.0019 10.9739C15.0957 10.8801 15.1485 10.7528 15.1485 10.6201C15.1485 10.4874 15.0957 10.3601 15.0019 10.2663C14.9081 10.1725 14.7808 10.1198 14.6481 10.1198H13.9076V9.37925C13.9076 9.24655 13.8549 9.11929 13.7611 9.02545C13.6672 8.93162 13.54 8.87891 13.4073 8.87891C13.2746 8.87891 13.1473 8.93162 13.0535 9.02545C12.9596 9.11929 12.9069 9.24655 12.9069 9.37925V10.1198Z" fill="white"/>
</svg>
