<svg width="18" height="18" viewBox="0 0 18 18" fill="none" xmlns="http://www.w3.org/2000/svg">
<path d="M12.6697 12.5996L11.9759 13.9041L15.3725 13.3488C14.6871 13.005 13.7592 12.7593 12.6697 12.5996ZM3.91987 12.884C2.34667 13.2989 1.35001 13.9788 1.35001 14.9886C1.35065 15.206 1.39817 15.4207 1.48933 15.618L6.94063 14.727L3.91987 12.884ZM16.5222 14.3996L8.93521 15.6362L10.9361 17.9125C14.2218 17.6182 16.65 16.5686 16.65 14.9886C16.65 14.778 16.6046 14.5821 16.5222 14.3996ZM7.65325 15.8495L2.52685 16.6874C3.88189 17.5269 6.27355 17.9996 9.00001 17.9996C9.16525 17.9996 9.32671 17.9949 9.48943 17.9915L7.65325 15.8495Z" fill="white"/>
<path d="M9.00037 0C6.06637 0 3.65887 2.39976 3.65887 5.3271C3.65887 6.46146 4.02193 7.51824 4.63465 8.38422L4.61629 8.3556L8.08291 14.348L8.09731 14.3672C8.23411 14.5456 8.36731 14.6862 8.52409 14.7899C8.68069 14.8934 8.8751 14.9557 9.06572 14.9366C9.44696 14.8984 9.68059 14.6291 9.90217 14.3287L9.91387 14.3131L13.7362 7.80786L13.7385 7.80354C13.8282 7.64154 13.8942 7.47684 13.9504 7.31628C14.2082 6.68478 14.3409 6.0092 14.341 5.3271C14.3412 2.39976 11.9344 0 9.00037 0ZM9.00037 0.747C11.5276 0.747 13.594 2.8089 13.594 5.3271C13.594 5.93316 13.4737 6.5115 13.2561 7.0425L13.2522 7.05186L13.2489 7.06122C13.2003 7.20054 13.1476 7.3287 13.0849 7.4421L9.29503 13.8915C9.12007 14.1244 8.99227 14.1932 8.99119 14.1934C8.99065 14.1934 8.98867 14.2015 8.93647 14.1667C8.88589 14.1334 8.79967 14.0512 8.69923 13.9219L5.25403 7.9668L5.24449 7.95312C4.71673 7.20702 4.40587 6.3027 4.40587 5.32728C4.40587 2.80908 6.47317 0.747 9.00037 0.747ZM9.00037 2.32128C7.33249 2.32128 5.98663 3.66228 5.98663 5.3271C5.98663 6.99192 7.33249 8.33292 9.00037 8.33292C10.6681 8.33292 12.0136 6.99192 12.0136 5.32692C12.0136 3.66228 10.6683 2.32128 9.00037 2.32128ZM9.00037 3.06828C10.273 3.06828 11.2666 4.05954 11.2666 5.3271C11.2666 6.59466 10.2732 7.58592 9.00037 7.58592C7.72741 7.58592 6.73363 6.59448 6.73363 5.32692C6.73363 4.05972 7.72741 3.06828 9.00037 3.06828Z" fill="white"/>
</svg>
