<svg width="15" height="14" viewBox="0 0 15 14" fill="none" xmlns="http://www.w3.org/2000/svg">
<path d="M13.2102 9.1894C12.3557 9.1894 11.5168 9.05534 10.7217 8.79178C10.3321 8.65849 9.85324 8.78077 9.61547 9.02573L8.04623 10.2141C6.22635 9.23956 5.10535 8.11541 4.14716 6.30354L5.29692 4.77039C5.59563 4.47114 5.70278 4.03401 5.57441 3.62385C5.31055 2.82213 5.17651 1.98093 5.17651 1.12343C5.17655 0.503964 4.67416 0 4.05667 0H1.49366C0.876168 0 0.373779 0.503964 0.373779 1.12339C0.373779 8.22365 6.13211 14 13.2102 14C13.8277 14 14.3301 13.496 14.3301 12.8766V10.3127C14.33 9.69336 13.8276 9.1894 13.2102 9.1894Z" fill="#FFFBF9"/>
</svg>
