<svg width="61" height="61" viewBox="0 0 61 61" fill="none" xmlns="http://www.w3.org/2000/svg">
<g clip-path="url(#clip0_27_526)">
<path d="M37.3994 24.8334L28.2341 33.4902L23.8355 28.9649C23.3479 28.4628 22.5449 28.4514 22.0433 28.9391C21.5413 29.4272 21.5299 30.2297 22.0175 30.7317L27.2931 36.1473C27.7833 36.6404 28.5753 36.6573 29.0858 36.1851L39.1667 26.6767C39.4115 26.4458 39.5546 26.127 39.564 25.7908C39.5734 25.4546 39.4488 25.1283 39.2174 24.884C38.7268 24.374 37.9178 24.3517 37.3994 24.8334Z" fill="white"/>
<path d="M30.5983 11.5117C20.1236 11.5117 11.6063 20.029 11.6063 30.5037C11.6063 40.9789 20.1236 49.4962 30.5983 49.4962C41.0735 49.4962 49.5908 40.9789 49.5908 30.5037C49.5908 20.029 41.0735 11.5117 30.5983 11.5117ZM30.5983 46.9537C21.5219 46.9537 14.1488 39.5677 14.1488 30.5037C14.1488 21.4397 21.5219 14.0542 30.5983 14.0542C39.6836 14.0542 47.0483 21.4189 47.0483 30.5037C47.0483 39.5885 39.6836 46.9537 30.5983 46.9537Z" fill="white"/>
<path d="M56.735 23.5114L57.1546 15.9729C57.1839 15.4669 56.9088 14.9917 56.4555 14.7653L49.7433 11.3712L46.3492 4.65899C46.1183 4.20959 45.646 3.93597 45.1415 3.95981L37.5901 4.367L31.2975 0.209679C30.8734 -0.0698929 30.3237 -0.0698929 29.8992 0.209679L23.6066 4.367L16.0686 3.94739C15.5621 3.9176 15.0873 4.1927 14.8609 4.64657L11.4663 11.3588L4.7546 14.7529C4.30471 14.9833 4.03159 15.4555 4.05543 15.9605L4.47454 23.499L0.317711 29.7916C0.0381394 30.2157 0.0381394 30.7654 0.317711 31.19L4.46212 37.495L4.04252 45.0335C4.01322 45.5395 4.28782 46.0147 4.74169 46.2411L11.4539 49.6352L14.848 56.3474C15.0784 56.7973 15.5506 57.0704 16.0556 57.0466L23.5941 56.627L29.8867 60.7838C30.3083 61.0723 30.8635 61.0723 31.2851 60.7838L37.5777 56.627L45.1162 57.0466C45.6222 57.0759 46.0969 56.8008 46.3238 56.3474L49.7179 49.6352L56.4301 46.2411C56.8795 46.0102 57.1531 45.5385 57.1293 45.0335L56.7097 37.495L60.8665 31.2024C61.1461 30.7783 61.1461 30.2281 60.8665 29.804L56.735 23.5114ZM54.3703 36.4527C54.2154 36.6801 54.1434 36.9537 54.1672 37.2283L54.561 44.3596L48.2178 47.563C47.976 47.6842 47.7798 47.8808 47.6586 48.1227L44.4547 54.4659L37.3234 54.0721C37.0503 54.0622 36.7807 54.1327 36.5478 54.2752L30.5983 58.2036L24.6494 54.2752C24.4428 54.1357 24.1995 54.0602 23.9502 54.0592H23.8866L16.7548 54.4535L13.5514 48.1098C13.4303 47.8679 13.2341 47.6718 12.9918 47.5506L6.63563 44.3596L7.02991 37.2283C7.03984 36.9552 6.96883 36.6856 6.82631 36.4527L2.89841 30.5032L6.82631 24.5537C6.98174 24.3268 7.05374 24.0527 7.02991 23.7786L6.63563 16.6468L12.9794 13.4434C13.2212 13.3222 13.4173 13.1261 13.5385 12.8842L16.7419 6.54051L23.8737 6.93479C24.1463 6.94422 24.416 6.87371 24.6494 6.73119L30.5983 2.80329L36.5478 6.73119C36.7752 6.88662 37.0493 6.95862 37.3234 6.93479L44.4547 6.54051L47.6586 12.8842C47.7798 13.1261 47.976 13.3222 48.2178 13.4434L54.561 16.6468L54.1672 23.7786C54.1573 24.0512 54.2283 24.3209 54.3703 24.5537L58.2987 30.5032L54.3703 36.4527Z" fill="white"/>
</g>
<defs>
<clipPath id="clip0_27_526">
<rect width="61" height="61" fill="white"/>
</clipPath>
</defs>
</svg>
