<svg width="70" height="70" viewBox="0 0 70 70" fill="none" xmlns="http://www.w3.org/2000/svg">
<path d="M69.8191 40.1176L66.2759 34.6962C64.7113 32.3006 62.053 30.8701 59.1634 30.8701H49.9999V25.5969C49.9999 22.3773 47.3817 19.7592 44.1621 19.7592H27.0081C26.0455 14.732 21.6204 10.918 16.3167 10.918C10.3111 10.918 5.42577 15.804 5.42577 21.8089C5.42577 25.5848 7.35919 28.9157 10.2863 30.8701H1.11135C0.497182 30.8701 0 31.3673 0 31.9815C0 32.5956 0.497182 33.0928 1.11135 33.0928H12.2223V35.3149H7.77753C7.164 35.3149 6.66682 35.812 6.66682 36.4262C6.66682 37.0404 7.164 37.5369 7.77753 37.5369H12.2223V39.759H1.11135C0.497182 39.759 0 40.2562 0 40.8703C0 41.4845 0.497182 41.9817 1.11135 41.9817H12.2223V46.9026C10.2634 47.7667 8.88888 49.7211 8.88888 51.9959V53.0926C8.88888 53.7068 9.3867 54.204 10.0002 54.204H19.8549C20.4868 56.9226 22.9244 58.9571 25.8331 58.9571C28.7425 58.9571 31.1794 56.9226 31.8114 54.204H53.1883C53.8209 56.9226 56.2585 58.9571 59.1666 58.9571C62.0747 58.9571 64.5129 56.9226 65.1449 54.204H68.889C69.5032 54.204 69.9997 53.7068 69.9997 53.0926V40.7254C69.9997 40.5092 69.9368 40.2975 69.8191 40.1176ZM7.64783 21.8089C7.64783 17.0291 11.5369 13.14 16.3167 13.14C21.0972 13.14 24.9856 17.0291 24.9856 21.8089C24.9856 26.5887 21.0972 30.4778 16.3167 30.4778C11.5369 30.4778 7.64783 26.5887 7.64783 21.8089ZM14.4444 41.9817H16.6664C17.2806 41.9817 17.7778 41.4845 17.7778 40.8703C17.7778 40.2562 17.2806 39.759 16.6664 39.759H14.4444V37.5369H22.2225C22.8361 37.5369 23.3332 37.0404 23.3332 36.4262C23.3332 35.812 22.8361 35.3149 22.2225 35.3149H14.4444V33.0928H28.8887C29.5022 33.0928 30.0001 32.5956 30.0001 31.9815C30.0001 31.3673 29.5022 30.8701 28.8887 30.8701H22.3471C25.2291 28.9456 27.1409 25.6853 27.1994 21.9812H44.1628C46.1559 21.9812 47.7778 23.6037 47.7778 25.5969V46.4258H14.4583C14.4539 46.4258 14.4494 46.4271 14.4444 46.4271V41.9817ZM47.7778 51.9813H31.9125C31.7376 50.7034 31.1705 49.5513 30.3332 48.6479H47.7778V51.9813ZM14.4583 48.6479H21.3331C20.4964 49.5513 19.9286 50.7034 19.7544 51.9813H11.1109C11.1186 50.1426 12.6177 48.6479 14.4583 48.6479ZM25.8331 56.735C23.6721 56.735 21.9129 54.9765 21.9129 52.8148C21.9129 50.6538 23.6721 48.8946 25.8331 48.8946C27.9948 48.8946 29.7534 50.6538 29.7534 52.8148C29.7534 54.9765 27.9948 56.735 25.8331 56.735ZM59.1666 56.735C57.0056 56.735 55.2464 54.9765 55.2464 52.8148C55.2464 50.6538 57.0056 48.8946 59.1666 48.8946C61.3283 48.8946 63.0868 50.6538 63.0868 52.8148C63.0868 54.9765 61.3283 56.735 59.1666 56.735ZM67.7776 51.9813H65.2459C64.8371 48.9886 62.2698 46.6725 59.1666 46.6725C56.0633 46.6725 53.4967 48.9886 53.0872 51.9813H49.9999V33.0928H59.1634C61.299 33.0928 63.2629 34.1463 64.4163 35.9112L67.7776 41.056V51.9813Z" fill="white"/>
<path d="M60.9843 52.8138C60.9843 53.8177 60.1705 54.6315 59.1666 54.6315C58.1627 54.6315 57.3489 53.8177 57.3489 52.8138C57.3489 51.8099 58.1627 50.9961 59.1666 50.9961C60.1705 50.9961 60.9843 51.8099 60.9843 52.8138Z" fill="white"/>
<path d="M27.6508 52.8138C27.6508 53.8177 26.837 54.6315 25.8331 54.6315C24.8299 54.6315 24.0161 53.8177 24.0161 52.8138C24.0161 51.8099 24.8299 50.9961 25.8331 50.9961C26.837 50.9961 27.6508 51.8099 27.6508 52.8138Z" fill="white"/>
<path d="M58.7921 34.2031H56.6667C56.0525 34.2031 55.5554 34.7003 55.5554 35.3145V43.092C55.5554 43.7062 56.0525 44.2034 56.6667 44.2034H64.1448C64.8416 44.2034 65.4653 43.8429 65.815 43.2408C66.1647 42.6387 66.1653 41.9177 65.8207 41.3169L63.2261 36.7755C62.3201 35.1899 60.6206 34.2031 58.7921 34.2031ZM57.7781 41.9813V36.4258H58.7921C59.8253 36.4258 60.7847 36.9821 61.2965 37.8786L63.6406 41.9813H57.7781Z" fill="white"/>
<path d="M17.7777 21.8078V16.9467C17.7777 16.3325 17.2806 15.8359 16.6664 15.8359C16.0529 15.8359 15.5557 16.3325 15.5557 16.9467V21.4454L13.2878 24.5563C12.9261 25.0522 13.0348 25.7465 13.5307 26.1076C13.7291 26.2526 13.9579 26.3219 14.1849 26.3219C14.5276 26.3219 14.8658 26.1636 15.0833 25.8648L17.5647 22.4621C17.7027 22.2726 17.7777 22.0437 17.7777 21.8078Z" fill="white"/>
</svg>
