<svg width="59" height="50" viewBox="0 0 59 50" fill="none" xmlns="http://www.w3.org/2000/svg">
<path d="M58.2108 14.1689H1.58085C1.20636 14.1689 0.895813 14.4816 0.895813 14.8586V28.1917C0.895813 28.5687 1.20636 28.8814 1.58085 28.8814H8.65959V31.6124C8.65959 31.971 8.92447 32.2652 9.28069 32.302L13.6193 32.7158C13.9938 34.0951 14.5327 35.3916 15.2177 36.587L12.441 39.9801C12.2127 40.2559 12.2401 40.6513 12.4867 40.9088L17.282 45.7363C17.5286 45.9846 17.9305 46.003 18.2045 45.7823L21.5657 42.9869C22.7988 43.6858 24.0867 44.2283 25.4111 44.5869L25.8312 48.9547C25.8678 49.3041 26.1601 49.5799 26.5163 49.5799H33.3027C33.659 49.5799 33.9512 49.3133 33.9878 48.9547L34.3988 44.5869C35.7323 44.2191 37.0294 43.6858 38.2442 42.9869L41.6054 45.7823C41.8794 46.0122 42.2722 45.9938 42.5279 45.7363L47.3323 40.9088C47.579 40.6605 47.5972 40.2559 47.378 39.9801L44.5922 36.587C45.2772 35.3824 45.807 34.0859 46.1906 32.7158L50.5292 32.302C50.8854 32.2652 51.1503 31.971 51.1503 31.6124V28.8814H58.2108C58.5853 28.8814 58.8958 28.5687 58.8958 28.1917V14.8586C58.8958 14.4816 58.5853 14.1689 58.2108 14.1689ZM49.762 30.9871L45.5695 31.3917C45.2772 31.4193 45.0397 31.6308 44.9667 31.9158C44.5831 33.4974 43.9711 34.9686 43.1582 36.302C43.0029 36.5502 43.0303 36.8721 43.213 37.102L45.9075 40.3847L41.989 44.3294L38.7374 41.626C38.509 41.4421 38.1894 41.4145 37.9427 41.5709C36.5818 42.4076 35.1204 43.0145 33.5859 43.3823C33.3027 43.4559 33.0927 43.695 33.0653 43.9892L32.6634 48.2098H27.1191L26.7081 43.98C26.6807 43.6858 26.4706 43.4467 26.1875 43.3731C24.6804 43.0053 23.2098 42.3984 21.8306 41.5617C21.584 41.4145 21.2643 41.4329 21.0451 41.6168L17.8026 44.3202L13.8842 40.3755L16.5695 37.0928C16.7522 36.8629 16.7796 36.541 16.6243 36.2928C15.8114 34.9595 15.1994 33.4882 14.8158 31.9066C14.7427 31.6216 14.5053 31.4101 14.213 31.3825L10.0205 30.9779V28.8814H20.6341C20.9903 33.7181 25.0001 37.5525 29.8958 37.5525C34.7916 37.5525 38.8013 33.7273 39.1575 28.8814H49.762V30.9871ZM22.0133 28.8814H37.7875C37.4404 32.9549 34.0335 36.1732 29.8958 36.1732C25.7582 36.1732 22.3604 32.9641 22.0133 28.8814ZM57.5257 27.5021H2.26589V15.5482H5.3166V19.3827C5.3166 19.7597 5.62715 20.0723 6.00164 20.0723C6.37613 20.0723 6.68668 19.7597 6.68668 19.3827V15.5482H10.0388V17.5896C10.0388 17.9666 10.3494 18.2792 10.7238 18.2792C11.0983 18.2792 11.4089 17.9666 11.4089 17.5896V15.5482H14.8706V19.3827C14.8706 19.7597 15.1812 20.0723 15.5557 20.0723C15.9301 20.0723 16.2407 19.7597 16.2407 19.3827V15.5482H19.5928V17.5896C19.5928 17.9666 19.9034 18.2792 20.2779 18.2792C20.6523 18.2792 20.9629 17.9666 20.9629 17.5896V15.5482H24.4246V19.3827C24.4246 19.7597 24.7352 20.0723 25.1097 20.0723C25.4842 20.0723 25.7947 19.7597 25.7947 19.3827V15.5482H29.1468V17.5896C29.1468 17.9666 29.4574 18.2792 29.8319 18.2792C30.2064 18.2792 30.5169 17.9666 30.5169 17.5896V15.5482H33.9786V19.3827C33.9786 19.7597 34.2892 20.0723 34.6637 20.0723C35.0382 20.0723 35.3487 19.7597 35.3487 19.3827V15.5482H38.7009V17.5896C38.7009 17.9666 39.0114 18.2792 39.3859 18.2792C39.7604 18.2792 40.0709 17.9666 40.0709 17.5896V15.5482H43.5327V19.3827C43.5327 19.7597 43.8432 20.0723 44.2177 20.0723C44.5922 20.0723 44.9027 19.7597 44.9027 19.3827V15.5482H48.2549V17.5896C48.2549 17.9666 48.5654 18.2792 48.9399 18.2792C49.3144 18.2792 49.6249 17.9666 49.6249 17.5896V15.5482H53.0867V19.3827C53.0867 19.7597 53.3972 20.0723 53.7717 20.0723C54.1462 20.0723 54.4568 19.7597 54.4568 19.3827V15.5482H57.5075V27.5021H57.5257Z" fill="white"/>
<path d="M2.11065 6.12483L11.281 10.3547H11.2902C11.3724 10.3914 11.4637 10.419 11.5642 10.419H51.0864H55.9091C57.2883 10.419 58.4118 9.288 58.4118 7.89951V3.09958C58.4118 1.7111 57.2883 0.580078 55.9091 0.580078H51.0864H11.5733C11.4729 0.580078 11.3815 0.598469 11.2993 0.644446H11.2902L2.11979 4.87427C1.87317 4.98461 1.7179 5.23289 1.7179 5.49955C1.7179 5.76621 1.87317 6.00529 2.11065 6.12483ZM12.2584 6.18H50.4014V9.03053H12.2584V6.18ZM57.0417 3.09958V7.89032C57.0417 8.52479 56.5302 9.03053 55.9091 9.03053H51.7714V1.95937H55.9091C56.5302 1.95937 57.0417 2.4743 57.0417 3.09958ZM50.4014 4.80071H12.2584V1.95017H50.4014V4.80071ZM10.8883 2.34557V8.65353L4.04703 5.49035L10.8883 2.34557Z" fill="white"/>
</svg>
